<svg height="512" viewBox="0 0 512 512" width="512" xmlns="http://www.w3.org/2000/svg"><g id="Flat"><path d="m200 160h256v256h-256z" fill="#8acce7"/><g fill="#c4d4e0"><rect height="24" rx="12" width="288" x="184" y="136"/><path d="m184 184h16a0 0 0 0 1 0 0v32a0 0 0 0 1 0 0h-16a16 16 0 0 1 -16-16 16 16 0 0 1 16-16z"/><rect height="32" rx="16" width="80" x="408" y="184"/><path d="m250.34277 109.65674-8-8a30.62622 30.62622 0 0 1 .001-43.314 14.62673 14.62673 0 0 0 0-20.68554l-8.001-8.00049 11.31446-11.31348 8 8a30.62622 30.62622 0 0 1 -.001 43.314 14.62673 14.62673 0 0 0 0 20.68554l8.001 8.00049z"/><path d="m330.34277 109.65674-8-8a30.62622 30.62622 0 0 1 .001-43.314 14.62673 14.62673 0 0 0 0-20.68554l-8.001-8.00049 11.31446-11.31348 8 8a30.62622 30.62622 0 0 1 -.001 43.314 14.62673 14.62673 0 0 0 0 20.68554l8.001 8.00049z"/><path d="m410.34277 109.65674-8-8a30.62622 30.62622 0 0 1 .001-43.314 14.62673 14.62673 0 0 0 0-20.68554l-8.001-8.00049 11.31446-11.31348 8 8a30.62622 30.62622 0 0 1 -.001 43.314 14.62673 14.62673 0 0 0 0 20.68554l8.001 8.00049z"/></g><rect fill="#ad7d4d" height="32" rx="16" width="368" x="24" y="456"/><path d="m98.97 422.75a19.99077 19.99077 0 0 1 -14.97 33.25 20.00487 20.00487 0 1 1 -30.97-1.25 19.9917 19.9917 0 0 1 -8-32 20.01371 20.01371 0 0 1 -12.6301-14.75h79.2002a20.01371 20.01371 0 0 1 -12.6301 14.75z" fill="#008051"/><path d="m104 412a20 20 0 0 1 -40 0 20 20 0 1 1 -26.97-18.75 19.99077 19.99077 0 0 1 14.97-33.25 20.00487 20.00487 0 1 1 30.97 1.25 19.9917 19.9917 0 0 1 8 32 19.99867 19.99867 0 0 1 13.03 18.75z" fill="#349966"/><path d="m232 456h-126.685a33.315 33.315 0 0 1 -33.315-33.315v-.00007a33.315 33.315 0 0 1 38.257-32.9464l121.743 18.26147z" fill="#e88604"/><path d="m360 384v32h-40v40h-112a72.00575 72.00575 0 0 1 -72-72z" fill="#a6b2bc"/><path d="m320 444v12h-112a72.00575 72.00575 0 0 1 -72-72h13a72.0198 72.0198 0 0 0 71 60z" fill="#c4d4e0"/><rect fill="#ad7d4d" height="48" rx="8" width="128" x="360" y="376"/><path d="m240 432a24.00525 24.00525 0 1 1 -9.59009-19.18994 23.97737 23.97737 0 0 1 9.59009 19.18994z" fill="#e88604"/><path d="m240 432a23.97737 23.97737 0 0 1 -9.59009 19.18994 31.9303 31.9303 0 0 1 0-38.37988 23.9772 23.9772 0 0 1 9.59009 19.18994z" fill="#e2792e"/><path d="m280 432a24.00525 24.00525 0 1 1 -9.59009-19.18994 23.97737 23.97737 0 0 1 9.59009 19.18994z" fill="#e88604"/><path d="m280 432a23.97737 23.97737 0 0 1 -9.59009 19.18994 31.9303 31.9303 0 0 1 0-38.37988 23.9772 23.9772 0 0 1 9.59009 19.18994z" fill="#e2792e"/><circle cx="296" cy="432" fill="#e88604" r="24"/></g></svg>