<svg id="Capa_1" enable-background="new 0 0 512.25 512.25" height="512" viewBox="0 0 512.25 512.25" width="512" xmlns="http://www.w3.org/2000/svg"><g><path d="m57.25 155.678h-30v-30.428c0-15.982 6.224-31.008 17.525-42.31l20.368-20.368 21.213 21.213-20.368 20.368c-5.635 5.635-8.738 13.127-8.738 21.097z" fill="#e7f2ff"/><circle cx="340.66" cy="235.088" fill="#c6ea4b" r="58.817"/><circle cx="423.84" cy="318.268" fill="#00dc7b" r="58.817"/><path d="m252.659 146.678h-43.409v193.671l54.665 54.665 83.335-1.336 35.204-117.204z" fill="#ffea94"/><path d="m382.454 276.474-118.539 118.54 54.664 54.664h193.671v-43.408z" fill="#ffb54c"/><path d="m318.579 340.349h-109.329v109.329l61-36z" fill="#e7f2ff"/><path d="m209.25 449.678h109.329v-109.329z" fill="#d0e8ff"/><path d="m0 146.678v124s44.75 44.75 89.5 89.5l23.75-109.5-23.75-104z" fill="#ff884d"/><path d="m89.5 146.678v213.5c44.75 44.75 89.5 89.5 89.5 89.5v-303z" fill="#ff4949"/><path d="m0 270.678v179h89.5l22.75-75-22.75-80.047c-26.329-15.231-56.895-23.953-89.5-23.953z" fill="#c6ea4b"/><path d="m179 449.678c0-66.254-35.998-124.097-89.5-155.047v155.047z" fill="#00dc7b"/></g></svg>